<?xml version="1.0" encoding="UTF-8" standalone="no"?>
<svg width="290px" height="308px" viewBox="0 0 290 308" version="1.1" xmlns="http://www.w3.org/2000/svg" xmlns:xlink="http://www.w3.org/1999/xlink">

    <title>me</title>
    <desc>Created with Sketch.</desc>
    <defs>
        <ellipse id="path-1" cx="145" cy="154" rx="145" ry="154"></ellipse>
    </defs>
    <g id="Page-1" stroke="none" stroke-width="1" fill="none" fill-rule="evenodd">
        <g id="-" transform="translate(-790.000000, -288.000000)">
            <g id="me" transform="translate(790.000000, 288.000000)">
                <mask id="mask-2" fill="white">
                    <use xlink:href="#path-1"></use>
                </mask>
                <use id="Oval" fill="#F8F8F8" xlink:href="#path-1"></use>
                <path d="M145.904296,309.476562 C96.5820303,308.56601 68.5214844,287.624705 68.5214844,284.537109 C68.5214844,269.869597 66.249767,284.631383 68.5214844,261.025391 C71.1738903,233.463567 82.0180567,201.129139 82.0180567,201.129139 C85.2308076,190.564407 96.7860764,182 107.838997,182 L180.997134,182 C192.044894,182 203.286316,190.654417 206.042023,201.354017 C206.042023,201.354017 215.038537,234.178582 217.363271,252.610001 C219.1294,266.612585 217.811726,287.976708 217.363273,288.097656 C203.951779,291.714737 195.226562,310.387115 145.904296,309.476562 Z" id="Shirt" fill="#656565" mask="url(#mask-2)"></path>
                <path d="M54.0612272,214.003407 L69.0922425,213.478513 L81.0634074,296.341886 C81.0634074,296.341886 78.3524322,304.215174 69.3153173,305.371998 C60.2782023,306.528822 56.9659361,297.183388 56.9659361,297.183388 L54.0612272,214.003407 Z M235.00218,211.524895 L219.971165,211 L208,293.863373 C208,293.863373 210.710975,301.736661 219.74809,302.893485 C228.785205,304.050309 232.097471,294.704875 232.097471,294.704875 L235.00218,211.524895 Z" id="Shirt-Sleeves" fill="#656565" mask="url(#mask-2)"></path>
                <path d="M93.6262134,125.31165 C94.6250732,119.64835 92.0949634,112.642697 102.111565,101.480349 C112.128166,90.3180003 120.934807,96.9628281 120.934807,96.9628281 L128.642579,166.318359 C128.642579,166.318359 122.07545,162.887966 118.385741,160.371094 C116.295231,158.945088 113.890538,165.117491 110.987304,163.802734 C110.311816,163.496834 107.247753,156.172305 106.967403,156.172305 C105.377864,156.172305 91.1225174,139.507015 93.6262134,125.31165 Z" id="Hair---Back-2" fill="#A08753" mask="url(#mask-2)"></path>
                <path d="M158.699683,125.31165 C159.698542,119.64835 157.168433,112.642697 167.185034,101.480349 C177.201635,90.3180003 186.008276,96.9628281 186.008276,96.9628281 L193.716048,166.318359 C193.716048,166.318359 187.148919,162.887966 183.459211,160.371094 C181.3687,158.945088 173.748188,167.633116 170.844954,166.318359 C170.169467,166.012459 162.965148,153.896484 162.684798,153.896484 C161.095259,153.896484 156.195987,139.507015 158.699683,125.31165 Z" id="Hair---Back-2" fill="#A08753" mask="url(#mask-2)" transform="translate(175.858024, 130.727166) scale(-1, 1) translate(-175.858024, -130.727166) "></path>
                <rect id="Neck" fill="#EAC4B1" mask="url(#mask-2)" x="128" y="151" width="31" height="36.1875"></rect>
                <polygon id="neckline" fill="#EAC4B1" mask="url(#mask-2)" transform="translate(143.500000, 197.500000) scale(1, -1) translate(-143.500000, -197.500000) " points="143.5 182 169 213 118 213"></polygon>
                <path d="M142,166.558594 C164.09139,166.558594 182,138.5848 182,106 C182,73.4151998 178.663656,58.0527344 156.572266,58.0527344 C134.480876,58.0527344 102,73.4151998 102,106 C102,138.5848 119.90861,166.558594 142,166.558594 Z" id="Head" fill="#F5CFBC" mask="url(#mask-2)"></path>
                <g id="Hair" mask="url(#mask-2)" fill="#CCAF73">
                    <g transform="translate(79.000000, 28.000000)" id="Combined-Shape">
                        <path d="M104.939849,71.4570683 C107.259146,73.8042728 109.547476,75.9593578 109.50586,77.0068348 C109.102835,87.1508755 99.9645306,97.5196028 97.5566411,107.282229 C96.4434134,111.795736 97.3958005,116.681649 97.5566411,118.499026 C98.9794926,134.576175 101,139 101,139 C101,139 105.816151,138.265751 109.50586,133.974609 C112.082763,130.977663 113.482116,123.949219 114.967404,123.949219 C116.556943,123.949219 116.709509,131.455495 118.300782,133.974609 C121.102315,138.409666 125,139 125,139 C125,139 131.010298,106.857496 130.233398,77.0068348 C129.717067,57.167927 123.822441,38.300508 119.823242,30.7021484 C117.106129,25.5397118 115.505804,22.6112673 114.616318,21.0846901 C111.000463,14.322309 101.368667,8.73838797 92.4121081,4.71484344 C81.7296527,-0.0840234244 69.4442676,1.46840222e-13 63,1.46840222e-13 C59.8583018,1.46840222e-13 42.3867188,1.48339846 33.7382813,5.91796889 C29.7522038,7.96186888 26.5507479,11.175297 24.1539364,14.2862146 C20.0442659,18.4791798 13.9614587,25.6828132 10.480469,34.5 C4.46445576,49.7382844 1.54509775,72.9977349 1.19966938,76.09375 C-1.50063834,100.296144 8.11531293,137 8.11531293,137 C8.11531293,137 12.3190783,136.409666 15.3406118,131.974609 C17.0568448,129.455495 17.2213917,121.949219 18.9357553,121.949219 C20.5376806,121.949219 22.0469226,128.977663 24.8261869,131.974609 C28.8056431,136.265751 34,137 34,137 C34,137 24.8261864,105.849284 24.8261864,88.0332031 C24.8261864,81.9007475 25.6197509,73.5769896 26.7400824,64.8813932 C33.8453326,63.2726674 45.0346782,60.0540382 52.5895266,54.554234 C62.8580307,47.0789335 75.3761462,34.0911491 78.5101942,30.7838246 C78.8008403,30.7314677 79.0898339,30.6821015 79.3770872,30.6358484 L103.820312,77.6376953 C103.820312,77.6376953 104.619334,74.2148491 104.939849,71.4570683 Z"></path>
                    </g>
                </g>
                <path d="M180,134.1875 C183.313709,134.1875 192,121.284271 192,113 C192,104.715729 189.313708,98 186,98 C183.804551,98 181.04587,98.7612909 180,103.160156 C179.467283,105.400733 180,110.204351 180,113 C180,121.284271 176.686292,134.1875 180,134.1875 Z" id="Ear" fill="#F4CEBB" mask="url(#mask-2)"></path>
                <g id="Face" mask="url(#mask-2)">
                    <g transform="translate(105.000000, 94.000000)">
                        <circle id="Earring" stroke="none" fill="#7D7D7D" fill-rule="evenodd" cx="77.5" cy="35.5" r="1.5"></circle>
                        <path d="M6.99804688,14.4453125 C6.99804688,14.4453125 15.7903646,10 19.5,10 C22.7903646,10 30,14.4453125 30,14.4453125" id="left-eye" stroke="#5A4D47" stroke-width="3" stroke-linecap="round" stroke-linejoin="bevel" fill="none"></path>
                        <path d="M0.5,12.5 L6.50292969,14.4912109" id="eyeliner-left" stroke="#5A4D47" stroke-width="3" stroke-linecap="round" stroke-linejoin="bevel" fill="none"></path>
                        <path d="M46,14.4453125 C46,14.4453125 54.9466146,10 58.65625,10 C61.9466146,10 69.15625,14.4453125 69.15625,14.4453125" id="right-eye" stroke="#5A4D47" stroke-width="3" stroke-linecap="round" stroke-linejoin="bevel" fill="none" transform="translate(57.578125, 12.222656) scale(-1, 1) translate(-57.578125, -12.222656) "></path>
                        <path d="M70,12 L76.0029297,13.9912109" id="eyeliner-right" stroke="#5A4D47" stroke-width="3" stroke-linecap="round" stroke-linejoin="bevel" fill="none" transform="translate(73.001465, 12.995605) scale(-1, 1) translate(-73.001465, -12.995605) "></path>
                        <polygon id="Nose" stroke="none" fill="#E9C1AD" fill-rule="evenodd" points="36.6914062 18.9570312 36.6914062 43.2050781 29.3652344 40.875"></polygon>
                        <path d="M5,3.68549878 C5,3.68549878 10.9501953,4.60319132e-16 15.7246094,0 C19.2835286,-3.43128729e-16 30,3.68549878 30,3.68549878" id="eyebrow-left" stroke="#564842" stroke-width="3" stroke-linecap="square" fill="none"></path>
                        <path d="M47,4.18545069 C47,4.18545069 52.9501953,0.49995191 57.7246094,0.49995191 C61.2835286,0.49995191 72,4.18545069 72,4.18545069" id="eyebrow-right" stroke="#564842" stroke-width="3" stroke-linecap="square" fill="none" transform="translate(59.500000, 2.342701) scale(-1, 1) translate(-59.500000, -2.342701) "></path>
                        <ellipse id="right-eye" stroke="none" fill="#5B4D47" fill-rule="evenodd" cx="57" cy="15.5" rx="4" ry="4.5"></ellipse>
                        <circle id="right-iris" stroke="none" fill="#77512F" fill-rule="evenodd" cx="57" cy="15" r="3"></circle>
                        <circle id="right-shine" stroke="none" fill="#FFFFFF" fill-rule="evenodd" cx="56" cy="13" r="1"></circle>
                        <ellipse id="left-eye" stroke="none" fill="#5B4D47" fill-rule="evenodd" cx="19" cy="15.5" rx="4" ry="4.5"></ellipse>
                        <circle id="left-iris" stroke="none" fill="#77512F" fill-rule="evenodd" cx="19" cy="15" r="3"></circle>
                        <circle id="left-shine" stroke="none" fill="#FFFFFF" fill-rule="evenodd" cx="18" cy="13" r="1"></circle>
                        <path d="M24.5,55 C24.5,55 32.6966146,59.4882812 37,59.4882812 C41.0299479,59.4882812 49.5,55 49.5,55" id="Line" stroke="#C1A191" stroke-width="2" stroke-linecap="square" fill="none"></path>
                    </g>
                </g>
                <g id="hand" mask="url(#mask-2)">
                    <g transform="translate(211.000000, 181.000000)">
                        <ellipse id="Oval-3" fill="#F5CFBC" cx="16.9286802" cy="28.9871094" rx="11.0912042" ry="11.2398996"></ellipse>
                        <path d="M18.5314443,20.711448 C20.7882085,20.711448 22.6176774,18.6965955 22.6176774,12.4889704 C22.6176774,6.28134526 20.7882085,1.24907082 18.5314443,1.24907082 C16.27468,1.24907082 14.4452111,6.28134526 14.4452111,12.4889704 C14.4452111,18.6965955 16.27468,20.711448 18.5314443,20.711448 Z" id="Oval-4" fill="#F8D4C2" transform="translate(18.531444, 10.980259) rotate(17.000000) translate(-18.531444, -10.980259) "></path>
                        <path d="M8.46953868,22.0819945 C10.7263029,22.0819945 12.5557718,19.844354 12.5557718,13.6367289 C12.5557718,7.42910381 10.7263029,2.39682937 8.46953868,2.39682937 C6.21277443,2.39682937 4.38330553,7.42910381 4.38330553,13.6367289 C4.38330553,19.844354 6.21277443,22.0819945 8.46953868,22.0819945 Z" id="Oval-4" fill="#F8D4C2" transform="translate(8.469539, 12.239412) rotate(-12.000000) translate(-8.469539, -12.239412) "></path>
                        <ellipse id="Oval-4" fill="#F8D4C2" transform="translate(8.704969, 27.390452) rotate(-75.000000) translate(-8.704969, -27.390452) " cx="8.70496922" cy="27.3904519" rx="5.40745276" ry="7.66452045"></ellipse>
                        <ellipse id="Oval-4" fill="#F8D4C2" transform="translate(24.668396, 21.278488) rotate(-330.000000) translate(-24.668396, -21.278488) " cx="24.6683956" cy="21.2784876" rx="5.40745276" ry="5.01226125"></ellipse>
                        <ellipse id="Oval-4" fill="#F8D4C3" transform="translate(28.170881, 27.194224) rotate(-323.000000) translate(-28.170881, -27.194224) " cx="28.1708812" cy="27.1942242" rx="5.40745276" ry="5.01226125"></ellipse>
                    </g>
                </g>
                <g id="hand" mask="url(#mask-2)">
                    <g transform="translate(59.500000, 200.500000) scale(-1, 1) translate(-59.500000, -200.500000) translate(41.000000, 180.000000)">
                        <ellipse id="Oval-3" fill="#F5CFBC" cx="17.9286802" cy="28.9871094" rx="11.0912042" ry="11.2398996"></ellipse>
                        <path d="M19.5314443,20.711448 C21.7882085,20.711448 23.6176774,18.6965955 23.6176774,12.4889704 C23.6176774,6.28134526 21.7882085,1.24907082 19.5314443,1.24907082 C17.27468,1.24907082 15.4452111,6.28134526 15.4452111,12.4889704 C15.4452111,18.6965955 17.27468,20.711448 19.5314443,20.711448 Z" id="Oval-4" fill="#F8D4C2" transform="translate(19.531444, 10.980259) rotate(17.000000) translate(-19.531444, -10.980259) "></path>
                        <path d="M9.46953868,22.0819945 C11.7263029,22.0819945 13.5557718,19.844354 13.5557718,13.6367289 C13.5557718,7.42910381 11.7263029,2.39682937 9.46953868,2.39682937 C7.21277443,2.39682937 5.38330553,7.42910381 5.38330553,13.6367289 C5.38330553,19.844354 7.21277443,22.0819945 9.46953868,22.0819945 Z" id="Oval-4" fill="#F8D4C2" transform="translate(9.469539, 12.239412) rotate(-12.000000) translate(-9.469539, -12.239412) "></path>
                        <ellipse id="Oval-4" fill="#F8D4C2" transform="translate(9.704969, 27.390452) rotate(-75.000000) translate(-9.704969, -27.390452) " cx="9.70496922" cy="27.3904519" rx="5.40745276" ry="7.66452045"></ellipse>
                        <ellipse id="Oval-4" fill="#F8D4C2" transform="translate(25.668396, 21.278488) rotate(-330.000000) translate(-25.668396, -21.278488) " cx="25.6683956" cy="21.2784876" rx="5.40745276" ry="5.01226125"></ellipse>
                        <ellipse id="Oval-4" fill="#F8D4C3" transform="translate(29.170881, 27.194224) rotate(-323.000000) translate(-29.170881, -27.194224) " cx="29.1708812" cy="27.1942242" rx="5.40745276" ry="5.01226125"></ellipse>
                    </g>
                </g>
            </g>
        </g>
    </g>
</svg>